<?xml version="1.0"?>
<svg width="100" height="100" preserveAspectRatio="xMidYMid meet" xmlns="http://www.w3.org/2000/svg" xmlns:svg="http://www.w3.org/2000/svg" clip-rule="evenodd" fill-rule="evenodd" version="1.1">
 <g class="layer" transform="scale(0.1)">
  <title>Персонаж</title>
  <rect fill="#999999" height="293.92" id="svg_131" stroke="#000000" stroke-width="0" width="430.05" x="284.48" y="520.4"/>
  <g id="svg_1">
   <path d="m739.5,425.5c-1,89.16 -1.33,178.5 -1,268c-0.33,24.51 0,48.84 1,73c16.33,0 32.67,0 49,0c0.99,-8.15 1.33,-16.48 1,-25c8.33,0 16.67,0 25,0c0,-16 0,-32 0,-48c8.33,0 16.67,0 25,0c0,24.67 0,49.33 0,74c-16.67,0 -33.33,0 -50,0c0,7.67 0,15.33 0,23c-25,0 -50,0 -75,0c0.17,-45.67 0,-91.34 -0.5,-137c-0.5,-2.02 -1,-4.02 -1.5,-6c0.22,-1.68 -0.45,-2.68 -2,-3c-15.67,0 -31.33,0 -47,0c0,-8 0,-16 0,-24c-8.33,0 -16.67,0 -25,0c0,-8.33 0,-16.67 0,-25c-8.33,0 -16.67,0 -25,0c0,-8 0,-16 0,-24c0,-24 0,-48 0,-72c-8.33,0 -16.67,0 -25,0c0,8 0,16 0,24c-8.67,0 -17.33,0 -26,0c0,8.33 0,16.67 0,25c-42,0 -84,0 -126,0c0,-8.33 0,-16.67 0,-25c-8.67,0 -17.33,0 -26,0c0,-8 0,-16 0,-24c-8.33,0 -16.67,0 -25,0c0,24 0,48 0,72c-8.33,0 -16.67,0 -25,0c0,8 0,16 0,24c-8.33,0 -16.67,0 -25,0c0,8.33 0,16.67 0,25c-8.33,0 -16.67,0 -25,0c0,8 0,16 0,24c-8.67,0 -17.33,0 -26,0c0,48.67 0,97.33 0,146c-33.33,0 -66.67,0 -100,0c0,-7.67 0,-15.33 0,-23c-8.33,0 -16.67,0 -25,0c0,-24.67 0,-49.33 0,-74c8.33,0 16.67,0 25,0c0,16 0,32 0,48c8.33,0 16.67,0 25,0c-0.33,8.52 0.01,16.85 1,25c16.33,0 32.67,0 49,0c1,-24.16 1.33,-48.49 1,-73c0.33,-89.5 0,-178.84 -1,-268c0,-7.33 0,-14.67 0,-22c-8.33,0 -16.67,0 -25,0c0,-81 0,-162 0,-243c-41.67,0 -83.33,0 -125,0c0,-40.33 0,-80.67 0,-121c8.67,0 17.33,0 26,0c0,7.67 0,15.33 0,23c8.33,0 16.67,0 25,0c0,8 0,16 0,24c8.33,0 16.67,0 25,0c0,8.33 0,16.67 0,25c33,0 66,0 99,0c0,-8.33 0,-16.67 0,-25c8.33,0 16.67,0 25,0c0,-8 0,-16 0,-24c126.67,0 253.33,0 380,0c0,8 0,16 0,24c8.33,0 16.67,0 25,0c0,8.33 0,16.67 0,25c33,0 66,0 99,0c0,-8.33 0,-16.67 0,-25c8.33,0 16.67,0 25,0c0,-8 0,-16 0,-24c8.33,0 16.67,0 25,0c0,-7.67 0,-15.33 0,-23c8.67,0 17.33,0 26,0c0,40.33 0,80.67 0,121c-41.67,0 -83.33,0 -125,0c0,81 0,162 0,243c-8.33,0 -16.67,0 -25,0c0,7.33 0,14.67 0,22zm-429,97c0,8.67 0,17.33 0,26c-8.33,0 -16.67,0 -25,0c0,-8.67 0,-17.33 0,-26c8.33,0 16.67,0 25,0zm378,26c8.33,0 16.67,0 25,0c0,8 0,16 0,24c-8.33,0 -16.67,0 -25,0c0,-8 0,-16 0,-24z" fill="#010000" id="svg_2" opacity="0.99"/>
  </g>
  <g id="svg_3">
   <path d="m713.5,159.5c-58.67,0 -117.33,0 -176,0c0,8.33 0,16.67 0,25c-8.33,0 -16.67,0 -25,0c0,64.33 0,128.67 0,193c-8,0 -16,0 -24,0c0.33,-64.5 0,-128.84 -1,-193c-8.67,0 -17.33,0 -26,0c0,-8.33 0,-16.67 0,-25c-58.67,0 -117.33,0 -176,0c0,-15.67 0,-31.33 0,-47c8.33,0 16.67,0 25,0c0,-8.33 0,-16.67 0,-25c126,0 252,0 378,0c0,8.33 0,16.67 0,25c8.33,0 16.67,0 25,0c0,15.67 0,31.33 0,47z" fill="#c13800" id="svg_4"/>
  </g>
  <g id="svg_5">
   <path d="m285.5,159.5c58.67,0 117.33,0 176,0c0,8.33 0,16.67 0,25c-0.99,-7.82 -1.33,-15.82 -1,-24c-58.5,0.33 -116.84,0 -175,-1z" fill="#380a00" id="svg_6"/>
  </g>
  <g id="svg_7">
   <path d="m713.5,159.5c-58.16,1 -116.5,1.33 -175,1c0.33,8.18 -0.01,16.18 -1,24c0,-8.33 0,-16.67 0,-25c58.67,0 117.33,0 176,0z" fill="#380a00" id="svg_8"/>
  </g>
  <g id="svg_9">
   <path d="m285.5,185.5c50.16,-1 100.5,-1.33 151,-1c0,8 0,16 0,24c-0.99,-7.48 -1.32,-15.15 -1,-23c-50,0 -100,0 -150,0z" fill="#989898" id="svg_10"/>
  </g>
  <g id="svg_11">
   <path d="m713.5,185.5c-50,0 -100,0 -150,0c0.33,7.85 -0.01,15.52 -1,23c0,-8 0,-16 0,-24c50.5,-0.33 100.84,0 151,1z" fill="#989898" id="svg_12"/>
  </g>
  <g id="svg_13">
   <path d="m285.5,185.5c50,0 100,0 150,0c-0.32,7.85 0.01,15.52 1,23c7.82,0.99 15.82,1.33 24,1c0,56 0,112 0,168c-16.33,0 -32.67,0 -49,0c0,-7.67 0,-15.33 0,-23c8.33,0 16.67,0 25,0c0.33,-40.84 0,-81.5 -1,-122c-8.33,0 -16.67,0 -25,0c0,-8 0,-16 0,-24c-33.33,0 -66.67,0 -100,0c0,8 0,16 0,24c-8.33,0 -16.67,0 -25,0c-1,40.5 -1.33,81.16 -1,122c8.67,0 17.33,0 26,0c0,7.67 0,15.33 0,23c-16.67,0 -33.33,0 -50,0c0,-56.33 0,-112.67 0,-169c8.33,0 16.67,0 25,0c0,-7.67 0,-15.33 0,-23z" fill="#fefefe" id="svg_14"/>
  </g>
  <g id="svg_15">
   <path d="m713.5,185.5c0,7.67 0,15.33 0,23c8.33,0 16.67,0 25,0c0,56.33 0,112.67 0,169c-8.33,0 -16.67,0 -25,0c0,8.67 0,17.33 0,26c-41.84,0.33 -83.5,0 -125,-1c0,-8 0,-16 0,-24c33.5,0.33 66.84,0 100,-1c0,-7.67 0,-15.33 0,-23c8.67,0 17.33,0 26,0c0.33,-40.84 0,-81.5 -1,-122c-8.33,0 -16.67,0 -25,0c0,-8 0,-16 0,-24c-33.33,0 -66.67,0 -100,0c0,8 0,16 0,24c-8.33,0 -16.67,0 -25,0c-1,40.16 -1.33,80.5 -1,121c-8,0 -16,0 -24,0c0,-48 0,-96 0,-144c8.18,0.33 16.18,-0.01 24,-1c0.99,-7.48 1.33,-15.15 1,-23c50,0 100,0 150,0z" fill="#fdfdfd" id="svg_16"/>
  </g>
  <g id="svg_17">
   <path d="m487.5,184.5c1,64.16 1.33,128.5 1,193c8,0 16,0 24,0c-8.15,0.99 -16.48,1.33 -25,1c0,-64.67 0,-129.33 0,-194z" fill="#962901" id="svg_18"/>
  </g>
  <g id="svg_19">
   <path d="m410.5,232.5c8.33,0 16.67,0 25,0c0,40.33 0,80.67 0,121c-8.33,0 -16.67,0 -25,0c0,8 0,16 0,24c-33.33,0 -66.67,0 -100,0c0,-7.67 0,-15.33 0,-23c-8.15,-0.99 -16.48,-1.33 -25,-1c0,-40.33 0,-80.67 0,-121c8.33,0 16.67,0 25,0c0,-8 0,-16 0,-24c33.33,0 66.67,0 100,0c0,8 0,16 0,24z" fill="#000000" id="svg_20"/>
  </g>
  <g id="svg_21">
   <path d="m688.5,232.5c8.33,0 16.67,0 25,0c0,40.33 0,80.67 0,121c-8.52,-0.33 -16.85,0.01 -25,1c0,7.67 0,15.33 0,23c-33.33,0 -66.67,0 -100,0c0,-8 0,-16 0,-24c-8.33,0 -16.67,0 -25,0c0,-40.33 0,-80.67 0,-121c8.33,0 16.67,0 25,0c0,-8 0,-16 0,-24c33.33,0 66.67,0 100,0c0,8 0,16 0,24z" fill="#000000" id="svg_22"/>
  </g>
  <g id="svg_23">
   <path d="m436.5,208.5c8.33,0 16.67,0 25,0c0,56.33 0,112.67 0,169c-0.33,0 -0.67,0 -1,0c0,-56 0,-112 0,-168c-8.18,0.33 -16.18,-0.01 -24,-1z" fill="#a8a8a8" id="svg_24"/>
  </g>
  <g id="svg_25">
   <path d="m562.5,208.5c-7.82,0.99 -15.82,1.33 -24,1c0,48 0,96 0,144c8,0 16,0 24,0c0,0.33 0,0.67 0,1c-8.33,0 -16.67,0 -25,0c0,-48.67 0,-97.33 0,-146c8.33,0 16.67,0 25,0z" fill="#a6a6a6" id="svg_26"/>
  </g>
  <g id="svg_27">
   <path d="m285.5,232.5c0,40.33 0,80.67 0,121c8.52,-0.33 16.85,0.01 25,1c-8.67,0 -17.33,0 -26,0c-0.33,-40.84 0,-81.5 1,-122z" fill="#bcbcbc" id="svg_28"/>
  </g>
  <g id="svg_29">
   <path d="m410.5,232.5c0,8.33 0,16.67 0,25c-8.33,0 -16.67,0 -25,0c0,-8.33 0,-16.67 0,-25c8.33,0 16.67,0 25,0z" fill="#a4a2a4" id="svg_30"/>
  </g>
  <g id="svg_31">
   <path d="m435.5,232.5c1,40.5 1.33,81.16 1,122c-8.33,0 -16.67,0 -25,0c0,7.67 0,15.33 0,23c16.33,0 32.67,0 49,0c0.33,0 0.67,0 1,0c-16.49,1 -33.16,1.33 -50,1c0.33,8.18 -0.01,16.18 -1,24c0,-8 0,-16 0,-24c-33.33,0 -66.67,0 -100,0c-16.84,0.33 -33.51,0 -50,-1c16.67,0 33.33,0 50,0c33.33,0 66.67,0 100,0c0,-8 0,-16 0,-24c8.33,0 16.67,0 25,0c0,-40.33 0,-80.67 0,-121z" fill="#7a7a7a" id="svg_32"/>
  </g>
  <g id="svg_33">
   <path d="m563.5,232.5c0,40.33 0,80.67 0,121c8.33,0 16.67,0 25,0c0,8 0,16 0,24c33.33,0 66.67,0 100,0c-33.16,1 -66.5,1.33 -100,1c0,8 0,16 0,24c-0.99,-7.82 -1.33,-15.82 -1,-24c-8.33,0 -16.67,0 -25,0c0,-8 0,-16 0,-24c0,-0.33 0,-0.67 0,-1c-0.33,-40.5 0,-80.84 1,-121z" fill="#7e7e7e" id="svg_34"/>
  </g>
  <g id="svg_35">
   <path d="m688.5,232.5c0,8.33 0,16.67 0,25c-8.33,0 -16.67,0 -25,0c0,-8.33 0,-16.67 0,-25c8.33,0 16.67,0 25,0z" fill="#a5a3a5" id="svg_36"/>
  </g>
  <g id="svg_37">
   <path d="m713.5,232.5c1,40.5 1.33,81.16 1,122c-8.67,0 -17.33,0 -26,0c8.15,-0.99 16.48,-1.33 25,-1c0,-40.33 0,-80.67 0,-121z" fill="#bcbcbc" id="svg_38"/>
  </g>
  <g id="svg_39">
   <path d="m563.5,354.5c8,0 16,0 24,0c0,7.67 0,15.33 0,23c-8,0 -16,0 -24,0c0,-7.67 0,-15.33 0,-23z" fill="#fefffe" id="svg_40"/>
  </g>
  <g id="svg_41">
   <path d="m310.5,378.5c33.33,0 66.67,0 100,0c0,8 0,16 0,24c-33.16,1 -66.5,1.33 -100,1c0,-8.33 0,-16.67 0,-25z" fill="#f9f9f9" id="svg_42"/>
  </g>
  <g id="svg_43">
   <path d="m562.5,403.5c0,7.67 0,15.33 0,23c-8.33,0 -16.67,0 -25,0c7.82,-0.99 15.82,-1.33 24,-1c0,-7 0,-14 0,-21c-41.33,0 -82.67,0 -124,0c0,7 0,14 0,21c8.18,-0.33 16.18,0.01 24,1c-8.33,0 -16.67,0 -25,0c0,-7.67 0,-15.33 0,-23c42,-1.33 84,-1.33 126,0z" fill="#deb400" id="svg_44"/>
  </g>
  <g id="svg_45">
   <path d="m537.5,426.5c0,8 0,16 0,24c-8.33,0 -16.67,0 -25,0c0,8.33 0,16.67 0,25c-8.33,0 -16.67,0 -25,0c0,-8.33 0,-16.67 0,-25c-8.67,0 -17.33,0 -26,0c0,-8 0,-16 0,-24c-7.82,-0.99 -15.82,-1.33 -24,-1c0,-7 0,-14 0,-21c41.33,0 82.67,0 124,0c0,7 0,14 0,21c-8.18,-0.33 -16.18,0.01 -24,1z" fill="#fec200" id="svg_46"/>
  </g>
  <g id="svg_47">
   <path d="m259.5,426.5c0.17,56.67 0,113.33 -0.5,170c-7.75,-0.98 -15.58,-1.32 -23.5,-1c0,8.67 0,17.33 0,26c-8.67,0 -17.33,0 -26,0c0,24 0,48 0,72c-8.33,0 -16.67,0 -25,0c-8.33,0 -16.67,0 -25,0c0,-16.33 0,-32.67 0,-49c8.67,0 17.33,0 26,0c0,-16 0,-32 0,-48c8.25,0.32 16.42,-0.02 24.5,-1c0.5,-15.66 0.67,-31.33 0.5,-47c8.33,0 16.67,0 25,0c0,-16.33 0,-32.67 0,-49c-8.33,0 -16.67,0 -25,0c0,8 0,16 0,24c-8.67,0 -17.33,0 -26,0c0,24 0,48 0,72c-8.33,0 -16.67,0 -25,0c0,-24.33 0,-48.67 0,-73c8.33,0 16.67,0 25,0c0,-15.67 0,-31.33 0,-47c8.33,0 16.67,0 25,0c0,-8.67 0,-17.33 0,-26c8.33,0 16.67,0 25,0c0,-7.67 0,-15.33 0,-23c8.33,0 16.67,0 25,0z" fill="#9f9f9f" id="svg_48" opacity="0.99"/>
  </g>
  <g id="svg_49">
   <path d="m436.5,403.5c0,7.67 0,15.33 0,23c8.33,0 16.67,0 25,0c0,8 0,16 0,24c-0.33,0 -0.67,0 -1,0c0,-7.67 0,-15.33 0,-23c-8,0 -16,0 -24,0c0,7.67 0,15.33 0,23c-0.99,-7.48 -1.32,-15.15 -1,-23c-33,0 -66,0 -99,0c0,7.67 0,15.33 0,23c-0.99,-7.82 -1.33,-15.82 -1,-24c33.33,0 66.67,0 100,0c-0.32,-7.85 0.01,-15.52 1,-23z" fill="#7d2e00" id="svg_50"/>
  </g>
  <g id="svg_51">
   <path d="m562.5,403.5c0.99,7.48 1.33,15.15 1,23c33.33,0 66.67,0 100,0c0.33,8.18 -0.01,16.18 -1,24c0,-7.67 0,-15.33 0,-23c-33,0 -66,0 -99,0c0.33,7.85 -0.01,15.52 -1,23c0,-7.67 0,-15.33 0,-23c-8,0 -16,0 -24,0c0,7.67 0,15.33 0,23c-0.33,0 -0.67,0 -1,0c0,-8 0,-16 0,-24c8.33,0 16.67,0 25,0c0,-7.67 0,-15.33 0,-23z" fill="#7f2c00" id="svg_52"/>
  </g>
  <g id="svg_53">
   <path d="m739.5,426.5c8.33,0 16.67,0 25,0c0,7.67 0,15.33 0,23c8.33,0 16.67,0 25,0c0,8.67 0,17.33 0,26c8.33,0 16.67,0 25,0c0,7.67 0,15.33 0,23c8.33,0 16.67,0 25,0c0,8.33 0,16.67 0,25c-16.67,0 -33.33,0 -50,0c0,-8 0,-16 0,-24c-8.67,0 -17.33,0 -26,0c0,8 0,16 0,24c8.33,0 16.67,0 25,0c0,8.33 0,16.67 0,25c8.67,0 17.33,0 26,0c0,32 0,64 0,96c8.33,0 16.67,0 25,0c0,16.33 0,32.67 0,49c-8.33,0 -16.67,0 -25,0c-8.33,0 -16.67,0 -25,0c0,-32.33 0,-64.67 0,-97c-8.67,0 -17.33,0 -26,0c0,-8 0,-16 0,-24c-8,0 -16,0 -24,0c0,-48.67 0,-97.33 0,-146z" fill="#9f9f9f" id="svg_54" opacity="0.99"/>
  </g>
  <g id="svg_55">
   <path d="m436.5,450.5c8,0 16,0 24,0c0.33,0 0.67,0 1,0c0,8.33 0,16.67 0,25c8.67,0 17.33,0 26,0c0,8 0,16 0,24c8.33,0 16.67,0 25,0c0,-8 0,-16 0,-24c8.33,0 16.67,0 25,0c0,-8.33 0,-16.67 0,-25c0.33,0 0.67,0 1,0c8,0 16,0 24,0c0.99,-7.48 1.33,-15.15 1,-23c33,0 66,0 99,0c0,7.67 0,15.33 0,23c-24.67,0 -49.33,0 -74,0c0,8.33 0,16.67 0,25c-8.33,0 -16.67,0 -25,0c0,8 0,16 0,24c-8.67,0 -17.33,0 -26,0c0,8 0,16 0,24c-25.33,0 -50.67,0 -76,0c0,-8 0,-16 0,-24c-8.67,0 -17.33,0 -26,0c0,-8 0,-16 0,-24c-8.33,0 -16.67,0 -25,0c0,-8.33 0,-16.67 0,-25c-24.67,0 -49.33,0 -74,0c0,-7.67 0,-15.33 0,-23c33,0 66,0 99,0c-0.32,7.85 0.01,15.52 1,23z" fill="#c03700" id="svg_56"/>
  </g>
  <g id="svg_57">
   <path d="m562.5,450.5c-8,0 -16,0 -24,0c0,-7.67 0,-15.33 0,-23c8,0 16,0 24,0c0,7.67 0,15.33 0,23z" fill="#000000" id="svg_58"/>
  </g>
  <g id="svg_59">
   <path d="m460.5,450.5c-8,0 -16,0 -24,0c0,-7.67 0,-15.33 0,-23c8,0 16,0 24,0c0,7.67 0,15.33 0,23z" fill="#000000" id="svg_60"/>
  </g>
  <g id="svg_61">
   <path d="m461.5,450.5c8.67,0 17.33,0 26,0c0,8.33 0,16.67 0,25c-8.67,0 -17.33,0 -26,0c0,-8.33 0,-16.67 0,-25z" fill="#020100" id="svg_62"/>
  </g>
  <g id="svg_63">
   <path d="m537.5,450.5c0,8.33 0,16.67 0,25c-8.33,0 -16.67,0 -25,0c0,-8.33 0,-16.67 0,-25c8.33,0 16.67,0 25,0z" fill="#080400" id="svg_64"/>
  </g>
  <g id="svg_65">
   <path d="m285.5,548.5c8.33,0 16.67,0 25,0c0,-8.67 0,-17.33 0,-26c0,-7.67 0,-15.33 0,-23c0,-8 0,-16 0,-24c-8.33,0 -16.67,0 -25,0c0,-8.33 0,-16.67 0,-25c16.34,-0.17 32.67,0 49,0.5c0.99,16.09 1.32,32.26 1,48.5c8.33,0 16.67,0 25,0c0,16.33 0,32.67 0,49c-8.33,0 -16.67,0 -25,0c0,7.67 0,15.33 0,23c-8.33,0 -16.67,0 -25,0c0,8 0,16 0,24c-8.33,0 -16.67,0 -25,0c0,-15.67 0,-31.33 0,-47z" fill="#020aef" id="svg_66"/>
  </g>
  <g id="svg_67">
   <path d="m487.5,475.5c8.33,0 16.67,0 25,0c0,8 0,16 0,24c-8.33,0 -16.67,0 -25,0c0,-8 0,-16 0,-24z" fill="#060200" id="svg_68"/>
  </g>
  <g id="svg_69">
   <path d="m285.5,475.5c8.33,0 16.67,0 25,0c0,8 0,16 0,24c-8.33,0 -16.67,0 -25,0c0,-8 0,-16 0,-24z" fill="#9e9f9e" id="svg_70"/>
  </g>
  <g id="svg_71">
   <path d="m664.5,476.5c8,0 16,0 24,0c0,7.67 0,15.33 0,23c0,7.67 0,15.33 0,23c-8.33,0 -16.67,0 -25,0c0,8.67 0,17.33 0,26c8.33,0 16.67,0 25,0c0,8 0,16 0,24c8.33,0 16.67,0 25,0c0,16 0,32 0,48c-8.33,0 -16.67,0 -25,0c0,-8.33 0,-16.67 0,-25c-8.33,0 -16.67,0 -25,0c0,-8 0,-16 0,-24c-8.33,0 -16.67,0 -25,0c0,-24 0,-48 0,-72c8.33,0 16.67,0 25,0c-0.33,-7.85 0.01,-15.52 1,-23z" fill="#010aef" id="svg_72"/>
  </g>
  <g id="svg_73">
   <path d="m664.5,476.5c16.16,-1 32.49,-1.33 49,-1c0,8 0,16 0,24c-8.33,0 -16.67,0 -25,0c0,-7.67 0,-15.33 0,-23c-8,0 -16,0 -24,0z" fill="#9a9b9d" id="svg_74"/>
  </g>
  <g id="svg_75">
   <path d="m159.5,644.5c0,-16.33 0,-32.67 0,-49c8.33,0 16.67,0 25,0c0,-24 0,-48 0,-72c8.67,0 17.33,0 26,0c0,-8 0,-16 0,-24c8.33,0 16.67,0 25,0c0,16.33 0,32.67 0,49c-8.33,0 -16.67,0 -25,0c0.17,15.67 0,31.34 -0.5,47c-8.08,0.98 -16.25,1.32 -24.5,1c0,16 0,32 0,48c-8.67,0 -17.33,0 -26,0z" fill="#8f99a2" id="svg_76"/>
  </g>
  <g id="svg_77">
   <path d="m613.5,571.5c-76,0 -152,0 -228,0c0,-24 0,-48 0,-72c8.33,0 16.67,0 25,0c0,8 0,16 0,24c8.67,0 17.33,0 26,0c0,8.33 0,16.67 0,25c42,0 84,0 126,0c0,-8.33 0,-16.67 0,-25c8.67,0 17.33,0 26,0c0,-8 0,-16 0,-24c8.33,0 16.67,0 25,0c0,24 0,48 0,72z" fill="#9e9e9e" id="svg_78"/>
  </g>
  <g id="svg_79">
   <path d="m638.5,499.5c0,24 0,48 0,72c8.33,0 16.67,0 25,0c0,8 0,16 0,24c-0.99,-7.48 -1.33,-15.15 -1,-23c-8.33,0 -16.67,0 -25,0c-0.33,-24.51 0,-48.84 1,-73z" fill="#003e0d" id="svg_80"/>
  </g>
  <g id="svg_81">
   <path d="m839.5,523.5c0,40.33 0,80.67 0,121c-8.33,0 -16.67,0 -25,0c0,-32 0,-64 0,-96c-8.67,0 -17.33,0 -26,0c0,-8.33 0,-16.67 0,-25c-8.33,0 -16.67,0 -25,0c0,-8 0,-16 0,-24c8.67,0 17.33,0 26,0c0,8 0,16 0,24c16.67,0 33.33,0 50,0z" fill="#8f99a2" id="svg_82" opacity="0.99"/>
  </g>
  <g id="svg_83">
   <path d="m739.5,425.5c0,0.33 0,0.67 0,1c0,48.67 0,97.33 0,146c8,0 16,0 24,0c0,8 0,16 0,24c8.67,0 17.33,0 26,0c0,32.33 0,64.67 0,97c-8.67,0 -17.33,0 -26,0c0,-24 0,-48 0,-72c-8,0 -16,0 -24,0c0,24 0,48 0,72c-0.33,0 -0.67,0 -1,0c-0.33,-89.5 0,-178.84 1,-268z" fill="#8d969f" id="svg_84"/>
  </g>
  <g id="svg_85">
   <path d="m259.5,425.5c1,89.16 1.33,178.5 1,268c-17,0 -34,0 -51,0c0,-24 0,-48 0,-72c8.67,0 17.33,0 26,0c0,-8.67 0,-17.33 0,-26c7.92,-0.32 15.75,0.02 23.5,1c0.5,-56.67 0.67,-113.33 0.5,-170c0,-0.33 0,-0.67 0,-1z" fill="#8f979f" id="svg_86"/>
  </g>
  <g id="svg_87">
   <path d="m763.5,693.5c-8,0 -16,0 -24,0c0,-24 0,-48 0,-72c8,0 16,0 24,0c0,24 0,48 0,72z" fill="#9f9f9f" id="svg_88"/>
  </g>
  <g id="svg_89">
   <path d="m488.5,621.5c8,0 16,0 24,0c0,7.67 0,15.33 0,23c-8,0 -16,0 -24,0c0,-7.67 0,-15.33 0,-23z" fill="#c1c8d0" id="svg_90"/>
  </g>
  <g id="svg_91">
   <path d="m710.5,644.5c1.55,0.32 2.22,1.32 2,3c-0.9,-0.79 -1.57,-1.79 -2,-3z" fill="#00bc02" id="svg_92" opacity="0"/>
  </g>
  <g id="svg_93">
   <path d="m361.5,694.5c8,0 16,0 24,0c0,31.67 0,63.33 0,95c-8,0 -16,0 -24,0c0,-31.67 0,-63.33 0,-95z" fill="#a0a0a0" id="svg_94"/>
  </g>
  <g id="svg_95">
   <path d="m488.5,694.5c8,0 16,0 24,0c0,7.67 0,15.33 0,23c-8,0 -16,0 -24,0c0,-7.67 0,-15.33 0,-23z" fill="#c0c7cf" id="svg_96"/>
  </g>
  <g id="svg_97">
   <path d="m613.5,694.5c8,0 16,0 24,0c0,31.67 0,63.33 0,95c-8,0 -16,0 -24,0c0,-31.67 0,-63.33 0,-95z" fill="#a0a0a0" id="svg_98"/>
  </g>
  <g id="svg_99">
   <path d="m184.5,693.5c8.33,0 16.67,0 25,0c17,0 34,0 51,0c0.33,24.51 0,48.84 -1,73c0,-8.33 0,-16.67 0,-25c-16.33,0 -32.67,0 -49,0c0,8.33 0,16.67 0,25c-0.99,-8.15 -1.33,-16.48 -1,-25c-8.33,0 -16.67,0 -25,0c0,-16 0,-32 0,-48z" fill="#7f2102" id="svg_100"/>
  </g>
  <g id="svg_101">
   <path d="m185.5,694.5c24.67,0 49.33,0 74,0c0,7.67 0,15.33 0,23c-16.67,0 -33.33,0 -50,0c0,7.67 0,15.33 0,23c-8,0 -16,0 -24,0c0,-15.33 0,-30.67 0,-46z" fill="#c13800" id="svg_102"/>
  </g>
  <g id="svg_103">
   <path d="m738.5,693.5c0.33,0 0.67,0 1,0c8,0 16,0 24,0c8.67,0 17.33,0 26,0c8.33,0 16.67,0 25,0c0,16 0,32 0,48c-8.33,0 -16.67,0 -25,0c0.33,8.52 -0.01,16.85 -1,25c0,-8.33 0,-16.67 0,-25c-16.33,0 -32.67,0 -49,0c0,8.33 0,16.67 0,25c-1,-24.16 -1.33,-48.49 -1,-73z" fill="#7f2102" id="svg_104"/>
  </g>
  <g id="svg_105">
   <path d="m739.5,694.5c24.67,0 49.33,0 74,0c0,15.33 0,30.67 0,46c-8,0 -16,0 -24,0c0,-7.67 0,-15.33 0,-23c-16.67,0 -33.33,0 -50,0c0,-7.67 0,-15.33 0,-23z" fill="#c13800" id="svg_106"/>
  </g>
  <g id="svg_107">
   <path d="m259.5,766.5c-16.33,0 -32.67,0 -49,0c0,-8.33 0,-16.67 0,-25c16.33,0 32.67,0 49,0c0,8.33 0,16.67 0,25z" fill="#c13800" id="svg_108"/>
  </g>
  <g id="svg_109">
   <path d="m788.5,766.5c-16.33,0 -32.67,0 -49,0c0,-8.33 0,-16.67 0,-25c16.33,0 32.67,0 49,0c0,8.33 0,16.67 0,25z" fill="#c13800" id="svg_110"/>
  </g>
  <g id="svg_111">
   <path d="m488.5,767.5c8,0 16,0 24,0c0,7.33 0,14.67 0,22c-8,0 -16,0 -24,0c0,-7.33 0,-14.67 0,-22z" fill="#c1c8cf" id="svg_112"/>
  </g>
  <g id="svg_113">
   <path d="m284.5,790.1c8.67,0 17.33,0 26,0c0,8.07 0,16.13 0,24.2c125,0.33 250,0 375,-1.01c2.75,-7.44 3.75,-15.16 3,-23.19c8.67,0 17.33,0 26,0c0,8.07 0,16.13 0,24.2c-8.33,0 -16.67,0 -25,0c0,8.4 0,16.81 0,25.2c-25.33,0 -50.67,0 -76,0c-8.67,0 -17.33,0 -26,0c-58.67,0 -117.33,0 -176,0c-8.67,0 -17.33,0 -26,0c-25.33,0 -50.67,0 -76,0c0,-8.4 0,-16.81 0,-25.2c-8.33,0 -16.67,0 -25,0c0,-8.07 0,-16.13 0,-24.2z" fill="#000000" id="svg_114" opacity="0.98"/>
  </g>
  <g id="svg_115" transform="matrix(1 0 0 1 0 0)">
   <path d="m385.5,839.5c8.67,0 17.33,0 26,0c0,15.67 0,31.33 0,47c8.33,0 16.67,0 25,0c0,8.33 0,16.67 0,25c8.33,0 16.67,0 25,0c0,8 0,16 0,24c-8.67,0 -17.33,0 -26,0c0,-7.67 0,-15.33 0,-23c-8,0 -16,0 -24,0c0,7.67 0,15.33 0,23c-8.67,0 -17.33,0 -26,0c0,-7.67 0,-15.33 0,-23c-8,0 -16,0 -24,0c0,7.67 0,15.33 0,23c-9,0 -18,0 -27,0c0,-8 0,-16 0,-24c8.67,0 17.33,0 26,0c0,-8.33 0,-16.67 0,-25c8.33,0 16.67,0 25,0c0,-15.67 0,-31.33 0,-47z" fill="#dd9b00" id="svg_116" opacity="0.96"/>
  </g>
  <g id="svg_117">
   <path d="m587.5,839.5c8.67,0 17.33,0 26,0c0,15.67 0,31.33 0,47c8.33,0 16.67,0 25,0c0,8.33 0,16.67 0,25c8.67,0 17.33,0 26,0c0,8 0,16 0,24c-9,0 -18,0 -27,0c0,-7.67 0,-15.33 0,-23c-8,0 -16,0 -24,0c0,7.67 0,15.33 0,23c-8.67,0 -17.33,0 -26,0c0,-7.67 0,-15.33 0,-23c-8,0 -16,0 -24,0c0,7.67 0,15.33 0,23c-8.67,0 -17.33,0 -26,0c0,-8 0,-16 0,-24c8.33,0 16.67,0 25,0c0,-8.33 0,-16.67 0,-25c8.33,0 16.67,0 25,0c0,-15.67 0,-31.33 0,-47z" fill="#dd9b00" id="svg_118" opacity="0.96"/>
  </g>
  <g id="svg_119">
   <path d="m334.5,935.5c9,0 18,0 27,0c0,8 0,16 0,24c-9,0 -18,0 -27,0c0,-8 0,-16 0,-24z" fill="#a07726" id="svg_120" opacity="0.93"/>
  </g>
  <g id="svg_121">
   <path d="m385.5,935.5c8.67,0 17.33,0 26,0c0,8 0,16 0,24c-8.67,0 -17.33,0 -26,0c0,-8 0,-16 0,-24z" fill="#a07726" id="svg_122" opacity="0.96"/>
  </g>
  <g id="svg_123">
   <path d="m435.5,935.5c8.67,0 17.33,0 26,0c0,8 0,16 0,24c-8.67,0 -17.33,0 -26,0c0,-8 0,-16 0,-24z" fill="#a07726" id="svg_124" opacity="0.96"/>
  </g>
  <g id="svg_125">
   <path d="m537.5,935.5c8.67,0 17.33,0 26,0c0,8 0,16 0,24c-8.67,0 -17.33,0 -26,0c0,-8 0,-16 0,-24z" fill="#a07726" id="svg_126" opacity="0.96"/>
  </g>
  <g id="svg_127">
   <path d="m587.5,935.5c8.67,0 17.33,0 26,0c0,8 0,16 0,24c-8.67,0 -17.33,0 -26,0c0,-8 0,-16 0,-24z" fill="#a07726" id="svg_128" opacity="0.96"/>
  </g>
  <g id="svg_129">
   <path d="m637.5,935.5c9,0 18,0 27,0c0,8 0,16 0,24c-9,0 -18,0 -27,0c0,-8 0,-16 0,-24z" fill="#a07726" id="svg_130" opacity="0.93"/>
  </g>
 </g>

</svg>